# xmcd
#
# Track frame offsets:
#	150
#	13725
#	26312
#	46990
#	61353
#	75926
#	93678
#	108245
#	119539
#	135644
#
# Disc length: 1951 seconds
# Revision: 0
# Processed by: cddbd v1.5.2PL0 Copyright (c) Steve Scherf et al.
# Submitted via: dBpowerAMP V12.0
#
DISCID=78079d0a
DTITLE=Audie Blaylock and Redline - Hard Country
DYEAR=2012
DGENRE=Country
TTITLE0=A Real Good Way To Lose
TTITLE1=The Chair
TTITLE2=Home Is Where The Heart Is
TTITLE3=A Natural Thing
TTITLE4=Philadelphia Lawyer
TTITLE5=14 Days
TTITLE6=Stormy Horizons
TTITLE7=On The Road
TTITLE8=A Grandmother's Love
TTITLE9=Newton's Grove
EXTD=
EXTT0=
EXTT1=
EXTT2=
EXTT3=
EXTT4=
EXTT5=
EXTT6=
EXTT7=
EXTT8=
EXTT9=
PLAYORDER=
